<?xml version="1.0" standalone="no"?>
<!DOCTYPE svg PUBLIC "-//W3C//DTD SVG 20010904//EN"
 "http://www.w3.org/TR/2001/REC-SVG-20010904/DTD/svg10.dtd">
<svg version="1.0" xmlns="http://www.w3.org/2000/svg"
 width="920.000000pt" height="734.000000pt" viewBox="0 0 920.000000 734.000000"
 preserveAspectRatio="xMidYMid meet">

<g transform="translate(0.000000,734.000000) scale(0.100000,-0.100000)"
fill="#000000" stroke="none">
<path d="M4740 6979 c-174 -19 -500 -96 -578 -138 -30 -16 -62 -69 -62 -103 0
-15 21 -75 46 -132 68 -157 92 -165 294 -103 198 60 286 72 540 71 227 0 299
-8 463 -49 202 -51 417 -144 582 -253 273 -178 488 -412 647 -701 42 -75 82
-111 127 -111 31 0 209 77 239 103 12 12 27 39 33 61 10 37 8 45 -32 124 -262
517 -767 942 -1336 1126 -301 96 -665 136 -963 105z"/>
<path d="M4872 6258 c-120 -8 -282 -38 -372 -69 -115 -40 -133 -96 -74 -235
49 -117 67 -141 112 -154 29 -8 51 -6 107 10 313 87 633 49 914 -107 164 -90
319 -238 427 -403 63 -97 99 -130 142 -130 29 0 214 80 240 103 12 11 27 37
33 57 10 32 8 43 -15 89 -68 132 -183 287 -293 392 -331 316 -767 475 -1221
447z"/>
<path d="M4780 5503 c-123 -19 -278 -80 -388 -152 -338 -223 -505 -609 -437
-1007 20 -115 38 -170 91 -274 54 -108 96 -166 185 -257 116 -119 253 -201
414 -249 136 -40 188 -46 335 -41 126 4 144 7 259 46 372 124 623 419 681 800
16 108 8 289 -20 399 -88 358 -407 657 -773 727 -72 14 -280 19 -347 8z m347
-636 c16 -16 18 -42 18 -291 0 -217 -3 -276 -14 -289 -12 -15 -53 -17 -407
-17 l-393 0 -15 22 c-14 19 -16 63 -16 281 0 269 3 291 43 307 12 5 189 8 394
7 342 -2 374 -3 390 -20z m417 2 l26 -20 0 -328 c0 -279 -2 -330 -16 -349 -15
-21 -21 -22 -181 -22 -141 0 -169 3 -185 17 -17 15 -18 39 -18 348 0 341 1
354 40 368 8 3 81 6 161 6 134 1 149 -1 173 -20z m-647 -649 c4 -17 14 -20 57
-20 52 0 76 -12 76 -37 0 -10 -62 -13 -310 -13 -297 0 -310 1 -310 19 0 24 19
31 80 31 39 0 49 4 53 20 5 19 14 20 177 20 163 0 172 -1 177 -20z"/>
<path d="M4352 4578 l3 -253 370 0 370 0 0 250 0 250 -373 3 -372 2 2 -252z
m708 -3 l0 -215 -335 0 -335 0 0 215 0 215 335 0 335 0 0 -215z"/>
<path d="M5254 4766 c-3 -8 -4 -25 -2 -38 3 -22 7 -23 98 -25 133 -2 142 0
138 40 l-3 32 -113 3 c-91 2 -113 0 -118 -12z"/>
<path d="M5280 4550 c0 -6 37 -10 90 -10 53 0 90 4 90 10 0 6 -37 10 -90 10
-53 0 -90 -4 -90 -10z"/>
<path d="M5323 4473 c26 -2 68 -2 95 0 26 2 4 3 -48 3 -52 0 -74 -1 -47 -3z"/>
<path d="M5323 4403 c26 -2 68 -2 95 0 26 2 4 3 -48 3 -52 0 -74 -1 -47 -3z"/>
<path d="M5339 4284 c-16 -20 -1 -48 29 -52 29 -5 47 31 26 52 -20 20 -38 20
-55 0z"/>
<path d="M2506 5358 c-146 -14 -285 -117 -357 -263 -28 -57 -33 -79 -37 -163
-3 -74 0 -113 13 -158 64 -223 287 -369 512 -334 204 31 365 195 395 401 24
162 -45 328 -181 431 -94 71 -209 100 -345 86z m-39 -268 c5 -19 14 -20 142
-20 131 0 161 -6 161 -32 0 -4 -84 -8 -186 -8 l-186 0 -27 -27 c-20 -21 -32
-50 -46 -110 -10 -46 -22 -83 -27 -83 -9 0 -11 284 -1 293 3 4 42 7 86 7 70 0
79 -2 84 -20z m382 -93 c11 -14 10 -22 -39 -202 -34 -123 -16 -116 -279 -113
l-226 3 2 48 c1 26 6 53 11 60 5 7 15 37 22 67 26 118 31 131 53 140 12 5 117
9 233 9 165 1 214 -2 223 -12z"/>
<path d="M3175 4876 c-68 -29 -124 -131 -111 -199 16 -80 67 -136 145 -157 34
-9 52 -8 96 4 121 36 172 178 102 285 -46 69 -155 101 -232 67z"/>
<path d="M3691 4862 c-71 -36 -100 -123 -64 -192 20 -38 84 -80 123 -80 44 0
107 36 126 72 66 127 -61 264 -185 200z"/>
<path d="M3504 4536 c-61 -20 -148 -81 -176 -124 -52 -80 -62 -113 -63 -202 0
-73 4 -93 29 -142 97 -197 340 -257 512 -128 96 72 141 174 132 299 -13 172
-146 299 -321 307 -43 2 -89 -2 -113 -10z m159 -118 c8 -11 5 -23 -11 -43 -17
-22 -19 -30 -9 -45 9 -16 26 -20 87 -22 l75 -3 3 -132 c2 -119 1 -132 -15
-136 -10 -3 -100 -5 -200 -5 -138 0 -185 3 -193 13 -7 8 -10 58 -8 136 l3 124
80 3 81 3 18 42 c20 47 55 89 70 84 5 -2 14 -10 19 -19z"/>
<path d="M3430 4251 c0 -16 6 -21 24 -21 31 0 29 34 -2 38 -17 3 -22 -2 -22
-17z"/>
<path d="M3507 4263 c-16 -15 -6 -33 18 -33 18 0 25 5 25 20 0 20 -28 28 -43
13z"/>
<path d="M3580 4250 c0 -15 7 -20 25 -20 18 0 25 5 25 20 0 15 -7 20 -25 20
-18 0 -25 -5 -25 -20z"/>
<path d="M3660 4251 c0 -16 6 -21 26 -21 33 0 30 33 -4 38 -17 3 -22 -2 -22
-17z"/>
<path d="M3730 4250 c0 -15 7 -20 25 -20 18 0 25 5 25 20 0 15 -7 20 -25 20
-18 0 -25 -5 -25 -20z"/>
<path d="M3436 4192 c-14 -14 -5 -42 14 -42 19 0 22 4 24 32 1 12 -29 20 -38
10z"/>
<path d="M3507 4193 c-4 -3 -7 -15 -7 -25 0 -13 7 -18 25 -18 29 0 36 34 9 44
-19 7 -19 7 -27 -1z"/>
<path d="M3587 4193 c-4 -3 -7 -15 -7 -25 0 -13 7 -18 25 -18 29 0 36 34 9 44
-19 7 -19 7 -27 -1z"/>
<path d="M3667 4193 c-4 -3 -7 -15 -7 -25 0 -23 38 -25 47 -2 8 21 -24 43 -40
27z"/>
<path d="M3736 4192 c-3 -3 -6 -14 -6 -24 0 -13 7 -18 26 -18 20 0 25 4 22 22
-3 20 -30 33 -42 20z"/>
<path d="M3430 4095 c0 -29 34 -36 44 -9 8 21 -1 34 -25 34 -14 0 -19 -7 -19
-25z"/>
<path d="M3503 4105 c-11 -29 12 -36 108 -33 86 3 94 5 94 23 0 18 -8 20 -98
23 -82 2 -98 0 -104 -13z"/>
<path d="M3734 4105 c-8 -20 4 -35 27 -35 14 0 19 7 19 25 0 18 -5 25 -20 25
-11 0 -23 -7 -26 -15z"/>
<path d="M2880 3908 c-73 -10 -215 -56 -305 -99 -165 -78 -335 -227 -439 -384
-342 -515 -198 -1211 319 -1551 186 -122 377 -177 610 -176 183 1 311 27 460
97 178 82 323 200 438 355 246 333 282 800 91 1166 -165 315 -465 535 -804
590 -94 15 -270 16 -370 2z m688 -674 c22 -15 22 -16 22 -333 0 -317 0 -318
-22 -338 -22 -20 -34 -20 -509 -19 -464 1 -488 2 -508 20 -20 19 -21 27 -21
333 0 300 1 314 20 333 19 19 33 20 508 20 425 0 490 -2 510 -16z m153 -754
c24 -14 26 -76 2 -102 -15 -17 -49 -18 -660 -18 -630 0 -643 0 -663 20 -24 24
-26 67 -3 92 15 17 49 18 660 18 425 0 651 -4 664 -10z"/>
<path d="M2597 3173 c-4 -3 -7 -132 -7 -285 l0 -278 473 2 472 3 3 269 c2 190
-1 273 -9 282 -9 12 -93 14 -469 14 -251 0 -460 -3 -463 -7z m891 -280 l2
-233 -425 0 -425 0 0 235 0 235 423 -2 422 -3 3 -232z"/>
<path d="M3120 2425 c0 -13 32 -15 230 -15 198 0 230 2 230 15 0 13 -32 15
-230 15 -198 0 -230 -2 -230 -15z"/>
<path d="M8110 3749 c-120 -20 -233 -109 -288 -226 -24 -51 -27 -70 -27 -159
0 -94 2 -104 34 -167 59 -116 164 -193 295 -218 162 -30 355 81 417 239 18 44
23 77 23 147 0 70 -5 103 -23 147 -26 67 -104 157 -165 193 -72 41 -176 59
-266 44z m234 -165 c24 -23 24 -415 0 -438 -13 -13 -42 -16 -163 -16 -134 0
-150 2 -165 19 -10 11 -15 24 -12 29 3 6 7 58 7 116 1 93 4 108 20 117 16 8
19 21 19 79 0 104 9 110 159 110 95 0 123 -3 135 -16z"/>
<path d="M8110 3485 c0 -42 3 -55 15 -55 12 0 15 13 15 55 0 42 -3 55 -15 55
-12 0 -15 -13 -15 -55z"/>
<path d="M8190 3485 c0 -42 3 -55 15 -55 12 0 15 13 15 55 0 42 -3 55 -15 55
-12 0 -15 -13 -15 -55z"/>
<path d="M8265 3485 c0 -46 3 -55 18 -55 14 0 17 9 17 55 0 46 -3 55 -17 55
-15 0 -18 -9 -18 -55z"/>
<path d="M5708 3681 c-139 -50 -233 -132 -292 -254 -114 -233 -37 -521 175
-658 86 -55 183 -82 289 -82 83 0 105 4 175 31 101 40 166 90 231 176 138 182
135 433 -6 620 -93 123 -247 196 -409 195 -68 0 -102 -6 -163 -28z m440 -193
c9 -9 12 -72 12 -220 l0 -208 -25 -6 c-14 -3 -32 -4 -40 0 -18 7 -20 42 -2 49
9 3 13 38 12 133 l0 129 -207 3 -208 2 0 53 c0 29 5 58 12 65 17 17 429 17
446 0z m-94 -154 c24 -24 24 -399 -1 -426 -15 -16 -35 -18 -228 -18 -151 0
-214 3 -223 12 -9 9 -12 71 -12 220 0 187 2 208 18 217 10 6 102 11 224 11
175 0 209 -2 222 -16z"/>
<path d="M5650 3085 l0 -125 175 0 175 0 0 125 0 125 -175 0 -175 0 0 -125z"/>
<path d="M4169 3680 c-75 -22 -119 -85 -119 -171 0 -64 21 -110 68 -146 30
-22 49 -28 102 -31 60 -3 68 -1 108 28 49 35 82 96 82 150 0 42 -29 108 -58
133 -43 39 -124 55 -183 37z"/>
<path d="M1809 3671 c-47 -15 -66 -30 -84 -67 -23 -49 -22 -73 4 -127 25 -51
53 -67 122 -67 42 0 55 5 85 33 63 57 58 165 -10 206 -39 24 -83 32 -117 22z"/>
<path d="M990 3587 c-109 -38 -205 -100 -276 -180 -49 -57 -125 -204 -143
-279 -16 -68 -14 -224 4 -293 46 -176 177 -337 336 -413 102 -49 164 -63 285
-63 110 0 194 20 285 67 158 83 280 234 323 400 20 78 21 238 1 321 -31 133
-138 284 -259 368 -30 20 -98 52 -152 71 -88 30 -110 34 -204 34 -92 -1 -117
-5 -200 -33z m375 -289 c86 -24 208 -103 213 -137 4 -26 -33 -71 -57 -71 -9 0
-38 16 -65 35 -152 108 -360 111 -513 9 -36 -24 -73 -44 -81 -44 -24 0 -62 41
-62 66 0 24 35 53 120 101 134 74 284 88 445 41z m-46 -144 c64 -18 149 -71
157 -97 3 -11 -2 -27 -12 -39 -37 -40 -48 -39 -128 2 -68 35 -85 40 -146 40
-61 0 -78 -5 -142 -38 -74 -39 -89 -41 -120 -14 -53 45 15 113 149 151 77 21
158 20 242 -5z m-9 -168 c53 -28 62 -56 29 -92 -26 -28 -45 -30 -85 -9 -36 19
-91 19 -124 0 -14 -8 -34 -14 -44 -15 -24 0 -66 38 -66 60 0 30 54 67 125 84
38 9 120 -5 165 -28z m-59 -149 c37 -28 51 -96 29 -138 -12 -22 -61 -49 -89
-49 -88 0 -134 109 -72 171 24 23 38 29 73 29 24 0 50 -6 59 -13z"/>
<path d="M6546 3220 c-81 -25 -119 -120 -78 -199 63 -126 241 -95 268 45 4 21
-1 47 -15 78 -16 37 -29 51 -63 66 -47 21 -67 23 -112 10z"/>
<path d="M7280 3050 c-360 -33 -654 -181 -898 -454 -239 -268 -357 -662 -308
-1032 21 -163 55 -275 126 -419 182 -370 511 -621 935 -716 81 -19 419 -19
500 0 417 92 757 352 938 716 124 249 166 561 112 839 -80 419 -370 782 -763
956 -201 89 -433 128 -642 110z m552 -559 l33 -29 3 -714 c2 -522 -1 -720 -9
-741 -7 -15 -23 -37 -37 -47 -24 -19 -42 -20 -437 -20 -401 0 -413 1 -438 21
-15 11 -31 37 -37 57 -8 25 -10 260 -8 740 l3 704 33 29 32 29 415 0 415 0 32
-29z"/>
<path d="M7022 2348 c-17 -17 -17 -1139 0 -1156 17 -17 709 -17 726 0 17 17
17 1139 0 1156 -17 17 -709 17 -726 0z m653 -578 l0 -505 -290 0 -290 0 -3
495 c-1 272 0 501 3 508 3 10 67 12 292 10 l288 -3 0 -505z"/>
<path d="M7266 1063 c-12 -31 21 -43 119 -43 98 0 131 12 119 43 -5 15 -21 17
-119 17 -98 0 -114 -2 -119 -17z"/>
<path d="M5372 2644 c-75 -37 -112 -100 -112 -188 1 -125 126 -225 248 -197
121 27 203 166 156 267 -31 68 -56 96 -108 120 -66 31 -119 30 -184 -2z"/>
<path d="M4630 2452 c-136 -15 -271 -83 -365 -184 -226 -241 -215 -608 23
-835 100 -95 270 -163 407 -163 80 0 194 30 274 71 137 72 255 216 293 359 22
83 23 236 3 315 -56 218 -251 398 -467 430 -51 8 -133 11 -168 7z m73 -394
c152 -51 276 -97 274 -102 -2 -7 -138 -86 -172 -100 -5 -2 25 -40 69 -84 l78
-80 -17 -26 c-10 -15 -30 -35 -45 -46 l-27 -19 -78 79 -79 79 -46 -86 c-26
-48 -51 -88 -57 -90 -6 -2 -43 92 -83 209 -107 313 -120 358 -107 358 7 0 137
-41 290 -92z"/>
<path d="M1250 2310 c-201 -24 -393 -121 -536 -272 -240 -253 -305 -616 -169
-949 95 -235 322 -430 581 -500 107 -30 313 -32 429 -5 345 79 615 376 664
730 15 105 14 167 -4 270 -43 244 -172 445 -375 583 -109 74 -264 129 -400
144 -93 10 -96 10 -190 -1z m-82 -442 c7 -7 12 -27 12 -45 l0 -33 70 0 70 0 0
40 c0 28 5 43 16 47 27 10 48 -11 48 -48 l1 -34 72 -3 72 -3 3 43 c3 38 6 43
28 43 22 0 25 -5 28 -42 3 -42 4 -43 41 -43 46 0 69 -23 78 -74 5 -33 8 -36
39 -36 38 0 58 -24 43 -52 -7 -12 -21 -18 -47 -18 l-37 0 3 -70 4 -70 33 0
c24 0 38 -6 45 -19 13 -26 -11 -51 -51 -51 l-29 0 0 -70 0 -70 35 0 c64 0 68
-63 3 -65 -29 -1 -33 -4 -40 -40 -10 -49 -39 -75 -84 -75 -32 0 -33 -2 -36
-42 -3 -38 -6 -43 -28 -43 -22 0 -25 5 -28 43 l-3 42 -74 0 -74 0 -3 -42 c-3
-38 -6 -43 -28 -43 -22 0 -25 5 -28 43 l-3 42 -70 0 c-69 0 -69 0 -69 -28 0
-37 -21 -65 -46 -61 -15 3 -20 14 -22 47 -3 40 -4 42 -36 42 -47 0 -76 27 -83
77 -5 36 -8 41 -27 37 -29 -5 -53 4 -60 23 -10 24 13 43 50 43 l34 0 0 73 0
74 -28 -5 c-38 -5 -66 21 -52 49 8 13 21 19 45 19 l35 0 0 75 c0 62 -2 73 -15
69 -22 -9 -62 3 -68 21 -9 22 22 47 54 43 25 -4 27 -1 32 36 7 49 36 76 83 76
33 0 34 1 34 38 0 21 3 42 7 45 10 11 38 8 51 -5z"/>
<path d="M1052 1440 l3 -301 298 -2 297 -2 0 303 0 302 -300 0 -300 0 2 -300z
m553 -5 l0 -250 -255 0 -255 0 -3 240 c-1 132 0 245 3 252 3 11 58 13 257 11
l253 -3 0 -250z"/>
<path d="M5585 2128 c-79 -28 -162 -116 -184 -193 -57 -206 121 -406 328 -368
76 14 150 64 191 126 39 60 50 96 50 169 0 110 -96 239 -200 268 -45 13 -146
11 -185 -2z"/>
<path d="M2497 1696 c-96 -35 -152 -117 -151 -221 1 -132 96 -225 229 -225 99
0 168 44 211 135 28 59 30 104 7 170 -40 120 -175 184 -296 141z"/>
<path d="M5521 1445 c-93 -21 -164 -59 -236 -126 -117 -110 -167 -224 -167
-383 0 -112 10 -152 63 -247 50 -91 104 -149 189 -199 84 -50 162 -72 258 -72
106 -1 175 16 254 60 291 161 366 533 159 787 -122 151 -330 223 -520 180z
m292 -216 c8 -13 0 -25 -37 -59 -25 -23 -46 -48 -46 -56 0 -18 47 -72 71 -79
14 -5 33 5 68 34 55 46 67 50 76 21 10 -30 -2 -72 -35 -123 -37 -58 -79 -81
-137 -74 l-44 5 -132 -129 c-73 -71 -143 -132 -156 -135 -54 -15 -133 64 -116
117 4 11 69 81 145 156 122 119 138 138 129 155 -19 35 -2 83 42 123 69 62
148 83 172 44z m-364 -31 c29 -25 51 -51 51 -63 0 -10 16 -36 36 -56 38 -39
40 -63 8 -76 -11 -4 -27 5 -48 29 -17 20 -42 39 -56 42 -22 5 -100 92 -100
111 0 13 35 54 46 55 7 0 35 -19 63 -42z m373 -385 c38 -37 68 -61 68 -53 0 8
-19 33 -41 56 -41 42 -44 64 -10 64 23 0 88 -69 96 -102 14 -55 -71 -148 -134
-148 -28 0 -44 12 -102 71 -38 39 -69 73 -69 76 0 8 105 102 115 103 5 0 40
-30 77 -67z"/>
<path d="M5420 792 c-8 -2 -21 -11 -27 -20 -43 -54 36 -113 82 -62 33 37 -8
97 -55 82z"/>
<path d="M2463 1152 c-101 -36 -170 -99 -221 -202 -24 -48 -27 -67 -27 -150 0
-82 4 -103 27 -152 70 -151 232 -243 392 -223 119 15 240 106 294 223 23 49
27 70 27 152 0 82 -4 103 -26 150 -39 81 -99 144 -176 182 -55 27 -79 32 -152
35 -65 3 -99 -1 -138 -15z m285 -134 c17 -17 17 -419 0 -436 -17 -17 -309 -17
-326 0 -17 17 -17 419 0 436 17 17 309 17 326 0z"/>
<path d="M2445 990 c3 -5 8 -10 11 -10 2 0 4 5 4 10 0 6 -5 10 -11 10 -5 0 -7
-4 -4 -10z"/>
<path d="M2710 990 c0 -5 5 -10 10 -10 6 0 10 5 10 10 0 6 -4 10 -10 10 -5 0
-10 -4 -10 -10z"/>
<path d="M2513 950 c-38 -23 -63 -67 -63 -110 0 -37 13 -65 49 -104 18 -19 22
-30 14 -33 -7 -3 -13 -10 -13 -16 0 -6 22 11 50 38 27 27 52 46 56 42 10 -9
-36 -116 -55 -128 -12 -8 -13 -9 -1 -6 8 2 24 20 35 40 11 20 27 37 36 37 23
0 67 37 84 70 32 61 5 147 -55 177 -37 19 -101 16 -137 -7z m115 -72 c21 -21
14 -66 -13 -84 -49 -32 -104 23 -75 75 12 24 68 29 88 9z"/>
<path d="M2500 651 c0 -10 19 -25 25 -20 1 2 -3 10 -11 17 -8 7 -14 8 -14 3z"/>
<path d="M2445 611 c-3 -5 -1 -12 5 -16 5 -3 10 1 10 9 0 18 -6 21 -15 7z"/>
<path d="M2716 611 c-4 -7 -5 -15 -2 -18 9 -9 19 4 14 18 -4 11 -6 11 -12 0z"/>
<path d="M4580 1059 c-75 -30 -150 -107 -178 -182 -61 -161 6 -333 161 -414
45 -24 63 -28 142 -28 84 0 94 2 154 35 107 58 171 165 171 285 0 123 -64 231
-171 290 -74 40 -197 46 -279 14z m258 -226 c2 -61 7 -103 13 -103 6 0 9 -30
7 -77 l-3 -78 -150 0 -150 0 -3 78 c-2 48 1 77 8 77 6 0 10 37 10 98 0 54 3
102 7 106 4 3 63 5 132 4 l126 -3 3 -102z"/>
<path d="M4610 822 l0 -88 98 1 97 0 0 85 0 85 -97 3 -98 3 0 -89z m73 29 c5
-1 7 -13 5 -28 -2 -24 -8 -28 -33 -28 -21 0 -31 5 -33 18 -6 30 5 44 30 41 12
-1 27 -3 31 -3z m105 -29 c3 -32 2 -33 -30 -30 -26 2 -34 8 -36 27 -4 27 9 39
41 37 17 -1 23 -8 25 -34z"/>
<path d="M6255 690 c-119 -78 -65 -264 77 -263 144 0 194 197 68 264 -45 25
-107 24 -145 -1z"/>
</g>
</svg>
